# xmcd
#
# Track frame offsets: 
#        150
#        14464
#        27379
#        40697
#        52990
#        67192
#        81870
#        97371
#        111159
#        124470
#        138252
#        151868
#        166208
#        181941
#        195308
#        210399
#        223960
#        238330
#        252209
#        267647
#
# Disc length: 3749 seconds
#
# Revision: 7
# Processed by: cddbd v1.5.2PL0 Copyright (c) Steve Scherf et al.
# Submitted via: ExactAudioCopy v1.0b3
#
DISCID=280ea314
DTITLE=Louis Armstrong - It's Louis Armstrong_CD02
DYEAR=2005
DGENRE=Jazz
TTITLE0=Big Butter And Egg Man
TTITLE1=Sunset Cafe Stomp
TTITLE2=You Made Me Love You
TTITLE3=Irish Black Bottom
TTITLE4=Willie The Weeper
TTITLE5=Wild Man Blues
TTITLE6=Chicago Breakdown
TTITLE7=Alligator Crawl
TTITLE8=Potato Head Blues
TTITLE9=Melancholy Blues
TTITLE10=Weary Blues
TTITLE11=Twelfth Street Rag
TTITLE12=Keyhole Blues
TTITLE13=S.O.L. Blues
TTITLE14=Gully Low Blues
TTITLE15=That's When I'll Come Back To You
TTITLE16=Put 'Em Down Blues
TTITLE17=Ory's Creole Trombone
TTITLE18=The Last Time
TTITLE19=Struttin' With Some Barbecue
EXTD=
EXTT0=
EXTT1=
EXTT2=
EXTT3=
EXTT4=
EXTT5=
EXTT6=
EXTT7=
EXTT8=
EXTT9=
EXTT10=
EXTT11=
EXTT12=
EXTT13=
EXTT14=
EXTT15=
EXTT16=
EXTT17=
EXTT18=
EXTT19=
PLAYORDER=
